<svg xmlns="http://www.w3.org/2000/svg" viewBox="0 0 787 787"><title>country-escape-logo3</title><g id="Layer_5" data-name="Layer 5"><path d="M1065,235.07V819.93A101.18,101.18,0,0,1,963.93,921H379.07A101.18,101.18,0,0,1,278,819.93V235.07A101.18,101.18,0,0,1,379.07,134H531v60H379.07A41.12,41.12,0,0,0,338,235.07V819.93A41.12,41.12,0,0,0,379.07,861H963.93A41.11,41.11,0,0,0,1005,819.93V235.07A41.12,41.12,0,0,0,963.93,194H633V134H963.93A101.18,101.18,0,0,1,1065,235.07Z" transform="translate(-278 -134)"/></g><g id="horshoe"><path d="M973.41,499.89a447.88,447.88,0,0,0-26.77-150.22,397.88,397.88,0,0,0-40.3-80.76l-58.67,21.84a299,299,0,0,1,21.47,35.88s0,0,0,.05C891.72,371.1,905,423.62,905.42,480c0,1,0,2,0,3.06s0,2,0,3.06c-1.63,129.29-106,233.6-234.49,233.6S438.08,615.37,436.45,486.08c0-1,0-2,0-3.06s0-2,0-3.06c.48-58.26,14.61-112.43,38.59-157.78a293.2,293.2,0,0,1,22.06-35.5q1.44-2.34,2.9-4.68l-58.57-21.81a391,391,0,0,0-42.68,80.28c-19,48.25-29.82,102.3-30.3,159.42,0,1.3,0,2.6,0,3.91s0,2.61,0,3.91C370.55,673,505.17,806.3,670.93,806.3S971.31,673,973.41,507.71c0-1.3,0-2.6,0-3.91S973.42,501.19,973.41,499.89Zm-578.3-67.36,6.08-33.45A9.5,9.5,0,0,1,420,400.77a9.85,9.85,0,0,1-.15,1.7l-6.08,33.45a9.5,9.5,0,0,1-18.7-3.39ZM404,536a9.5,9.5,0,0,1-10-9l-1.94-33.94A9.5,9.5,0,0,1,401,483l.55,0a9.5,9.5,0,0,1,9.47,9L413,525.93A9.5,9.5,0,0,1,404,536Zm33.12,87.81a9.49,9.49,0,0,1-12.51-4.89L411,587.74a9.49,9.49,0,0,1,4.89-12.51,9.38,9.38,0,0,1,3.81-.8,9.48,9.48,0,0,1,8.7,5.69L442,611.26A9.49,9.49,0,0,1,437.13,623.77Zm57.11,70.47a9.51,9.51,0,0,1-13.44,0l-24-24a9.5,9.5,0,0,1,13.44-13.44l24,24A9.51,9.51,0,0,1,494.24,694.24Zm76.23,46.56a9.5,9.5,0,0,1-12.64,4.54l-30.76-14.49a9.5,9.5,0,0,1,4.06-18.1,9.4,9.4,0,0,1,4,.91l30.76,14.49A9.51,9.51,0,0,1,570.47,740.8Zm243.87-9.95-30.76,14.49a9.5,9.5,0,0,1-8.1-17.19l30.76-14.49a9.4,9.4,0,0,1,4-.91,9.5,9.5,0,0,1,4.06,18.1ZM929.17,391.43a9.5,9.5,0,0,1,11.05,7.65l6.08,33.45a9.5,9.5,0,0,1-18.7,3.39l-6.08-33.45a9.85,9.85,0,0,1-.15-1.7A9.49,9.49,0,0,1,929.17,391.43ZM884.65,670.2l-24,24a9.5,9.5,0,0,1-13.44-13.44l24-24a9.5,9.5,0,1,1,13.44,13.44Zm45.78-82.46-13.64,31.14a9.5,9.5,0,1,1-17.4-7.62L913,580.12a9.48,9.48,0,0,1,8.7-5.69,9.38,9.38,0,0,1,3.81.8A9.49,9.49,0,0,1,930.43,587.74Zm18.93-94.67L947.42,527a9.5,9.5,0,1,1-19-1.08L930.4,492a9.49,9.49,0,0,1,9.47-9l.55,0A9.5,9.5,0,0,1,949.36,493.07Z" transform="translate(-278 -134)"/></g><g id="spikes"><path d="M500,282q-1.46,2.34-2.9,4.68-11,17.74-22.06,35.5L459,348l-18.56-2.32-18.68-2.33-23-2.88L371,337l35-90,35.43,13.19Z" transform="translate(-278 -134)"/><path d="M974,343l-29.36,3.67L886,354l-18.84-30.32s0,0,0-.05L845,288l.67-.25,58.67-21.84L939,253Z" transform="translate(-278 -134)"/><path d="M745,755H597.75v71.54a367,367,0,0,0,147.25,0Z" transform="translate(-278 -134)"/></g><g id="key"><path d="M697.74,428.08A13.89,13.89,0,0,0,703,438.72a19.94,19.94,0,0,0,12.75,4.41h66.72a21.49,21.49,0,0,0,4.51-.48v55.86a21.49,21.49,0,0,0-4.51-.48H715.77c-10,0-18,6.73-18,15.05A13.87,13.87,0,0,0,703,523.71a19.94,19.94,0,0,0,12.75,4.41h66.72a21.49,21.49,0,0,0,4.51-.48v53.13H700.44c0-8.31-8.07-15-18-15s-18,6.73-18,15H643.53c-5.91,0-10.71-4-10.71-8.94V543H608v61a24.25,24.25,0,0,1,11,20.32v5.42A24.3,24.3,0,0,1,594.71,654H571.29A24.3,24.3,0,0,1,547,629.71v-5.42a24.23,24.23,0,0,1,9-18.87V134h52V404h24.82V370.08c0-4.94,4.8-8.94,10.71-8.94h20.85c0,8.31,8.07,15,18,15s18-6.73,18-15H787v52.37a21.49,21.49,0,0,0-4.51-.47H715.77C705.81,413,697.74,419.77,697.74,428.08Z" transform="translate(-278 -134)"/></g></svg>